<svg version="1.0" xmlns="http://www.w3.org/2000/svg"
 width="512.000000pt" height="512.000000pt" viewBox="0 0 512.000000 512.000000"
 preserveAspectRatio="xMidYMid meet">
<metadata>
Created by potrace 1.16, written by Peter Selinger 2001-2019
</metadata>
<g transform="translate(0.000000,512.000000) scale(0.100000,-0.100000)"
fill="#000000" stroke="none">
<path d="M2235 5104 c-146 -19 -294 -51 -425 -91 -867 -262 -1539 -977 -1745
-1858 -52 -221 -60 -303 -60 -595 0 -292 8 -374 60 -595 224 -958 1001 -1716
1960 -1914 342 -70 728 -70 1070 0 959 198 1736 956 1960 1914 52 221 60 303
60 595 0 292 -8 374 -60 595 -206 881 -878 1596 -1745 1858 -139 42 -275 71
-433 92 -146 19 -500 19 -642 -1z m685 -298 c227 -40 417 -100 615 -195 308
-148 558 -341 766 -590 347 -415 529 -919 529 -1461 0 -508 -155 -971 -461
-1376 -213 -282 -483 -503 -814 -664 -325 -159 -631 -230 -995 -230 -615 0
-1170 230 -1605 665 -311 310 -506 661 -609 1095 -75 314 -75 706 0 1020 223
936 965 1610 1919 1745 136 19 523 14 655 -9z"/>
</g>
</svg>
